# AST/ASF file generated using VICON BodyLanguage
# -----------------------------------------------
:version 1.10
:name VICON
:units
  mass 1.0
  length 0.45
  angle deg
:documentation
   .ast/.asf automatically generated from VICON data using
   VICON BodyBuilder and BodyLanguage model FoxedUp or BRILLIANT.MOD
:root
   order TX TY TZ RX RY RZ
   axis XYZ
   position 0 0 0  
   orientation 0 0 0 
:bonedata
  begin
     id 1 
     name lhipjoint
     direction 0.78388 -0.462562 0.414208 
     length 3.01181 
     axis 0 0 0  XYZ
  end
  begin
     id 2 
     name lfemur
     direction 0.34202 -0.939693 0  
     length 6.04673  
     axis 0 0 20  XYZ
    dof rx ry rz
    limits (-160.0 20.0)
           (-70.0 70.0)
           (-60.0 70.0)
  end
  begin
     id 3 
     name ltibia
     direction 0.34202 -0.939693 0   
     length 7.211   
     axis 0 0 20   XYZ
    dof rx
    limits (-10.0 170.0)
  end
  begin
     id 4 
     name lfoot
     direction 0.121887 -0.334882 0.934344   
     length 2.13567   
     axis -90 7.62852e-016 20   XYZ
    dof rx rz
    limits (-45.0 90.0)
           (-70.0 20.0)
  end
  begin
     id 5 
     name ltoes
     direction 1.53555e-011 -4.2179e-011 1   
     length 1.05957   
     axis -90 7.62852e-016 20   XYZ
    dof rx
    limits (-90.0 20.0)
  end
  begin
     id 6 
     name rhipjoint
     direction -0.769387 -0.475875 0.426129   
     length 2.92756  
     axis 0 0 0  XYZ 
  end
  begin
     id 7 
     name rfemur
     direction -0.34202 -0.939693 0   
     length 6.35468   
     axis 0 0 -20   XYZ
    dof rx ry rz
    limits (-160.0 20.0)
           (-70.0 70.0)
           (-70.0 60.0)
  end
  begin
     id 8 
     name rtibia
     direction -0.34202 -0.939693 0   
     length 7.37886   
     axis 0 0 -20   XYZ
    dof rx
    limits (-10.0 170.0)
 end
 begin
     id 9 
     name rfoot
     direction -0.101763 -0.279592 0.954711   
     length 2.21478  
     axis -90 -7.62852e-016 -20   XYZ
    dof rx rz
    limits (-45.0 90.0)
           (-20.0 70.0)
  end
  begin
     id 10 
     name rtoes
     direction -1.53494e-011 -4.21851e-011 1   
     length 1.10506   
     axis -90 -7.62852e-016 -20   XYZ
    dof rx
    limits (-90.0 20.0)
  end
  begin
     id 11 
     name lowerback
     direction 0.00747405 0.999267 0.0375481   
     length 2.13259   
     axis 0 0 0   XYZ
    dof rx ry rz
    limits (-20.0 45.0)
           (-30.0 30.0)
           (-30.0 30.0)
  end
  begin
     id 12 
     name upperback
     direction 0.00661626 0.996177 0.0871029   
     length 2.10528   
     axis 0 0 0   XYZ
    dof rx ry rz
    limits (-20.0 45.0)
           (-30.0 30.0)
           (-30.0 30.0)
  end
  begin
     id 13 
     name thorax
     direction 0.00320659 0.997679 0.0680167   
     length 2.11338   
     axis 0 0 0   XYZ
    dof rx ry rz
    limits (-20.0 45.0)
           (-30.0 30.0)
           (-30.0 30.0)
  end
  begin
     id 14 
     name lowerneck
     direction 0.0374841 0.973033 0.227602   
     length 1.42765   
     axis 0 0 0   XYZ
    dof rx ry rz
    limits (-20.0 45.0)
           (-30.0 30.0)
           (-30.0 30.0)
  end
  begin
     id 15 
     name upperneck
     direction 0.00481585 0.989155 -0.146795   
     length 1.47593   
     axis 0 0 0   XYZ
    dof rx ry rz
    limits (-20.0 45.0)
           (-30.0 30.0)
           (-30.0 30.0)
  end
  begin
     id 16
     name head
     direction -0.00292522 0.997206 -0.0746423  
     length 1.48116  
     axis 0 0 0   XYZ
    dof rx ry rz
    limits (-20.0 45.0)
           (-30.0 30.0)
           (-30.0 30.0)
  end
  begin
     id 17 
     name lclavicle
     direction 0.951444 0.305606 0.0368784  
     length 3.01855  
     axis 0 0 0   XYZ
    dof ry rz
    limits (-20.0 10.0)
           (0.0 20.0)
  end
  begin
     id 18 
     name lhumerus
     direction 1 -4.48977e-011 2.61664e-027   
     length 5.52731   
     axis 180 -30 -90   XYZ
    dof rx ry rz
    limits (-60.0 90.0)
           (-90.0 90.0)
           (-90.0 90.0)
  end
  begin
     id 19
     name lradius
     direction 1 -4.48944e-011 8.22157e-027   
     length 3.11059   
     axis 180 -30 -90   XYZ
    dof rx
    limits (-10.0 170.0)
  end
  begin
     id 20
     name lwrist
     direction 1 -4.48976e-011 1.5779e-026   
     length 1.5553   
     axis -1.15221e-014 90 90   XYZ
    dof ry
    limits (-180.0 0.0)
 end
  begin
     id 21 
     name lhand
     direction 1 -4.49025e-011 3.1558e-026   
     length 0.419626   
     axis -2.01367e-014 90 90   XYZ
    dof rx rz
    limits (-90.0 90.0)
           (-45.0 45.0)
  end
  begin
     id 22 
     name lfingers
     direction 1 -4.4904e-011 6.31161e-026   
     length 0.338313   
     axis -4.02734e-014 90 90   XYZ
    dof rx
    limits (0.0 90.0)
  end
  begin
     id 23
     name lthumb
     direction 0.707107 -6.35004e-011 0.707107   
     length 0.485752   
     axis -90 45 2.85299e-015   XYZ
    dof rx rz
    limits (-45.0 45.0)
           (-45.0 45.0)
  end
  begin
     id 24 
     name rclavicle
     direction -0.968876 0.223791 0.105816   
     length 3.04177  
     axis 0 0 0   XYZ 
    dof ry rz
    limits (-10.0 20.0)
           (-20.0 0.0)
  end
  begin
     id 25 
     name rhumerus
     direction -1 -4.48962e-011 -1.01384e-027  
     length 5.25396   
     axis 180 30 90   XYZ
    dof rx ry rz
    limits (-90.0 60.0)
           (-90.0 90.0)
           (-90.0 90.0)
  end
  begin
     id 26 
     name rradius
     direction -1 -4.48955e-011 8.88542e-027   
     length 3.10567   
     axis 180 30 90   XYZ
    dof rx
    limits (-10.0 170.0)
  end
  begin
     id 27 
     name rwrist
     direction -1 -4.48994e-011 1.5779e-026   
     length 1.55283   
     axis -1.15221e-014 -90 -90   XYZ
    dof ry
    limits (-180.0 0.0)
  end
  begin
     id 28
     name rhand
     direction -1 -4.48891e-011 3.1558e-026   
     length 0.498676   
     axis -2.01367e-014 -90 -90   XYZ
    dof rx rz
    limits (-90.0 90.0)
           (-45.0 45.0)
  end
  begin
     id 29
     name rfingers
     direction -1 -4.48972e-011 6.31161e-026   
     length 0.402045   
     axis -4.02734e-014 -90 -90   XYZ
    dof rx
    limits (0.0 90.0)
  end
  begin
     id 30
     name rthumb
     direction -0.707107 -6.34849e-011 0.707107   
     length 0.577259   
     axis -90 -45 -2.85299e-015   XYZ
    dof rx rz
    limits (-45.0 45.0)
           (-45.0 45.0)
  end
:hierarchy
  begin
    root lhipjoint rhipjoint lowerback
    lhipjoint lfemur
    lfemur ltibia
    ltibia lfoot
    lfoot ltoes
    rhipjoint rfemur
    rfemur rtibia
    rtibia rfoot
    rfoot rtoes
    lowerback upperback
    upperback thorax
    thorax lowerneck lclavicle rclavicle
    lowerneck upperneck
    upperneck head
    lclavicle lhumerus
    lhumerus lradius
    lradius lwrist
    lwrist lhand lthumb
    lhand lfingers
    rclavicle rhumerus
    rhumerus rradius
    rradius rwrist
    rwrist rhand rthumb
    rhand rfingers
  end

#!OML:ASF H:\Pregnant\Project 1\Capture day 1\Session 1\femalepreg.ASF
:FULLY-SPECIFIED
:DEGREES
127
root 5.91518 14.0501 -1.14908 35.6417 -4.82572 -1.10955
lowerback -2.71292 -0.18771 1.55974
upperback -9.81835 -0.197968 0.600069
thorax -8.80275 -0.205322 -0.224847
lowerneck -31.8234 2.20006 4.75991
upperneck 14.2539 0.952968 -0.206079
head 9.61062 0.69727 -0.663249
rclavicle 6.78974e-015 5.98839e-015
rhumerus -1.24552 6.05125 -85.7073
rradius 105.705
rwrist 16.3307
rhand 13.3987 -16.8132
rfingers 7.12502
rthumb 38.3423 -42.5184
lclavicle 6.78974e-015 5.98839e-015
lhumerus -1.14298 -0.087455 79.3042
lradius 108.687
lwrist 13.337
lhand 18.3158 19.2381
lfingers 7.12502
lthumb 42.963 43.4971
rfemur -78.7345 3.67499 21.8073
rtibia 74.6794
rfoot -25.5116 -13.8285
rtoes -12.2543
lfemur -79.3076 -1.3305 -21.8958
ltibia 70.4481
lfoot -23.3468 8.95456
ltoes -13.5656
128
root 5.91625 14.051 -1.14891 35.6533 -4.81456 -1.10362
lowerback -2.7115 -0.189448 1.54931
upperback -9.81119 -0.201202 0.591086
thorax -8.79558 -0.206422 -0.22841
lowerneck -31.874 2.22002 4.79869
upperneck 14.2471 0.971836 -0.258635
head 9.61672 0.701357 -0.684857
rclavicle -6.36732e-015 -5.59082e-015
rhumerus -1.22754 6.06467 -85.7153
rradius 105.699
rwrist 16.3199
rhand 13.3725 -16.7969
rfingers 7.12502
rthumb 38.3176 -42.509
lclavicle -6.36732e-015 -5.59082e-015
lhumerus -1.14614 -0.075023 79.3052
lradius 108.706
lwrist 13.3498
lhand 18.3286 19.2645
lfingers 7.12502
lthumb 42.975 43.5193
rfemur -78.7435 3.652 21.8091
rtibia 74.6742
rfoot -25.5098 -13.8219
rtoes -12.2609
lfemur -79.3113 -1.3262 -21.9145
ltibia 70.4279
lfoot -23.3448 8.92828
ltoes -13.5717
129
root 5.91739 14.052 -1.14877 35.6657 -4.80389 -1.09787
lowerback -2.71038 -0.191614 1.53645
upperback -9.80375 -0.204827 0.585825
thorax -8.7879 -0.207343 -0.226668
lowerneck -31.9208 2.23449 4.82335
upperneck 14.2386 0.988054 -0.304242
head 9.62149 0.704243 -0.702222
rclavicle -1.55301e-015 7.90169e-015
rhumerus -1.20962 6.08225 -85.7197
rradius 105.694
rwrist 16.3123
rhand 13.3476 -16.7833
rfingers 7.12502
rthumb 38.2941 -42.5019
lclavicle -1.55301e-015 7.90169e-015
lhumerus -1.14739 -0.0593747 79.3112
lradius 108.723
lwrist 13.3557
lhand 18.3424 19.2961
lfingers 7.12502
lthumb 42.9879 43.5463
rfemur -78.753 3.62993 21.8101
rtibia 74.6673
rfoot -25.5075 -13.8145
rtoes -12.2614
lfemur -79.3162 -1.32077 -21.9338
ltibia 70.4071
lfoot -23.3419 8.90052
ltoes -13.5807
130
root 5.91862 14.0532 -1.14855 35.6779 -4.79379 -1.09393
lowerback -2.71078 -0.193618 1.52445
upperback -9.79318 -0.208096 0.58311
thorax -8.77582 -0.207996 -0.222769
lowerneck -31.9671 2.24456 4.82728
upperneck 14.2246 1.00295 -0.330266
head 9.62395 0.707728 -0.70951
rclavicle 9.31803e-017 7.45443e-016
rhumerus -1.18635 6.10246 -85.7213
rradius 105.687
rwrist 16.3115
rhand 13.3247 -16.772
rfingers 7.12502
rthumb 38.2724 -42.4966
lclavicle 9.31803e-017 7.45443e-016
lhumerus -1.13975 -0.0417164 79.3204
lradius 108.735
lwrist 13.3552
lhand 18.3606 19.3294
lfingers 7.12502
lthumb 43.0049 43.5736
rfemur -78.7607 3.60949 21.812
rtibia 74.6585
rfoot -25.5044 -13.8074
rtoes -12.2637
lfemur -79.3202 -1.31342 -21.9521
ltibia 70.3861
lfoot -23.3404 8.87025
ltoes -13.5748
131
root 5.91997 14.0543 -1.14829 35.6904 -4.7844 -1.09185
lowerback -2.71277 -0.195872 1.51366
upperback -9.78155 -0.211507 0.583518
thorax -8.76163 -0.208659 -0.216257
lowerneck -32.0195 2.25307 4.83106
upperneck 14.2148 1.01686 -0.362673
head 9.62885 0.709968 -0.719217
rclavicle 6.1499e-016 5.81445e-015
rhumerus -1.16184 6.12809 -85.72
rradius 105.681
rwrist 16.318
rhand 13.3013 -16.7627
rfingers 7.12502
rthumb 38.2504 -42.4933
lclavicle 6.1499e-016 5.81445e-015
lhumerus -1.12928 -0.0213225 79.3328
lradius 108.743
lwrist 13.3483
lhand 18.3818 19.3582
lfingers 7.12502
lthumb 43.0248 43.5954
rfemur -78.7676 3.59057 21.8145
rtibia 74.6486
rfoot -25.5018 -13.7982
rtoes -12.2664
lfemur -79.3246 -1.30549 -21.9691
ltibia 70.3661
lfoot -23.338 8.84242
ltoes -13.5747
132
root 5.92145 14.0554 -1.14805 35.7016 -4.77592 -1.09086
lowerback -2.71221 -0.197673 1.50422
upperback -9.772 -0.214227 0.583499
thorax -8.75126 -0.209139 -0.210951
lowerneck -32.0529 2.26128 4.83111
upperneck 14.194 1.03124 -0.386292
head 9.62682 0.713192 -0.725184
rclavicle -3.87009e-015 -5.91384e-015
rhumerus -1.14464 6.15368 -85.7204
rradius 105.675
rwrist 16.3341
rhand 13.2857 -16.7505
rfingers 7.12502
rthumb 38.2356 -42.4852
lclavicle -3.87009e-015 -5.91384e-015
lhumerus -1.12324 -0.0047452 79.3435
lradius 108.75
lwrist 13.3382
lhand 18.4014 19.381
lfingers 7.12502
lthumb 43.0431 43.6117
rfemur -78.7726 3.5729 21.8169
rtibia 74.6378
rfoot -25.4985 -13.7897
rtoes -12.2727
lfemur -79.3276 -1.29732 -21.9852
ltibia 70.3463
lfoot -23.3359 8.81499
ltoes -13.5647
133
root 5.92298 14.0566 -1.14769 35.7093 -4.76871 -1.09019
lowerback -2.70997 -0.199047 1.49525
upperback -9.76145 -0.216386 0.582644
thorax -8.74077 -0.209411 -0.206819
lowerneck -32.0716 2.26908 4.82797
upperneck 14.1617 1.04579 -0.402427
head 9.61835 0.717118 -0.727993
rclavicle 1.11816e-016 -7.01958e-015
rhumerus -1.12872 6.17871 -85.7222
rradius 105.668
rwrist 16.3572
rhand 13.2733 -16.7346
rfingers 7.12502
rthumb 38.2239 -42.4726
lclavicle 1.11816e-016 -7.01958e-015
lhumerus -1.11658 0.00962897 79.3528
lradius 108.754
lwrist 13.3258
lhand 18.4217 19.3934
lfingers 7.12502
lthumb 43.062 43.6174
rfemur -78.7721 3.55715 21.8182
rtibia 74.626
rfoot -25.4952 -13.7837
rtoes -12.2854
lfemur -79.3249 -1.2896 -22.0007
ltibia 70.3263
lfoot -23.3362 8.7888
ltoes -13.5468
134
root 5.92454 14.0578 -1.14731 35.7153 -4.7612 -1.08991
lowerback -2.70469 -0.199999 1.4878
upperback -9.75392 -0.217987 0.579694
thorax -8.73543 -0.209666 -0.205731
lowerneck -32.0724 2.27749 4.83179
upperneck 14.1234 1.05964 -0.420105
head 9.60496 0.720864 -0.732648
rclavicle -3.3607e-015 -3.00662e-015
rhumerus -1.12135 6.19996 -85.7283
rradius 105.661
rwrist 16.3848
rhand 13.2728 -16.7202
rfingers 7.12502
rthumb 38.2234 -42.4583
lclavicle -3.3607e-015 -3.00662e-015
lhumerus -1.11583 0.0169857 79.3586
lradius 108.757
lwrist 13.3129
lhand 18.4385 19.3989
lfingers 7.12502
lthumb 43.0777 43.6174
rfemur -78.7684 3.54232 21.819
rtibia 74.6131
rfoot -25.4925 -13.7781
rtoes -12.2931
lfemur -79.3196 -1.2834 -22.0146
ltibia 70.3055
lfoot -23.3368 8.76427
ltoes -13.5287
135
root 5.92611 14.0592 -1.14683 35.7185 -4.75338 -1.09041
lowerback -2.69749 -0.200967 1.48166
upperback -9.74494 -0.219588 0.576184
thorax -8.72964 -0.21004 -0.205965
lowerneck -32.0768 2.28612 4.83968
upperneck 14.089 1.07207 -0.439224
head 9.59358 0.724067 -0.738681
rclavicle -1.25203e-014 -4.8578e-015
rhumerus -1.1125 6.22005 -85.7358
rradius 105.652
rwrist 16.4127
rhand 13.2787 -16.7115
rfingers 7.12502
rthumb 38.2291 -42.448
lclavicle -1.25203e-014 -4.8578e-015
lhumerus -1.11196 0.02176 79.3621
lradius 108.756
lwrist 13.3041
lhand 18.4503 19.4018
lfingers 7.12502
lthumb 43.0888 43.6163
rfemur -78.7594 3.52882 21.8197
rtibia 74.5987
rfoot -25.4909 -13.7737
rtoes -12.2976
lfemur -79.3096 -1.2776 -22.0272
ltibia 70.2835
lfoot -23.3378 8.74
ltoes -13.5077
136
root 5.92761 14.0604 -1.14637 35.7224 -4.74385 -1.09143
lowerback -2.68806 -0.202439 1.47548
upperback -9.73922 -0.221781 0.572943
thorax -8.72878 -0.210736 -0.205827
lowerneck -32.0675 2.29487 4.85003
upperneck 14.0524 1.08424 -0.457384
head 9.57934 0.727413 -0.744855
rclavicle 3.16502e-015 2.5345e-015
rhumerus -1.10932 6.23929 -85.7449
rradius 105.643
rwrist 16.4366
rhand 13.2871 -16.7079
rfingers 7.12502
rthumb 38.237 -42.4423
lclavicle 3.16502e-015 2.5345e-015
lhumerus -1.11262 0.0230255 79.3635
lradius 108.754
lwrist 13.3011
lhand 18.4608 19.4097
lfingers 7.12502
lthumb 43.0986 43.6207
rfemur -78.7513 3.51666 21.8201
rtibia 74.5841
rfoot -25.4891 -13.7698
rtoes -12.2958
lfemur -79.3006 -1.27304 -22.0383
ltibia 70.2608
lfoot -23.3371 8.71737
ltoes -13.4926
137
root 5.92912 14.0618 -1.14586 35.7267 -4.73419 -1.09147
lowerback -2.68018 -0.204374 1.46751
upperback -9.73172 -0.224596 0.571129
thorax -8.72502 -0.21151 -0.203176
lowerneck -32.0697 2.30379 4.86257
upperneck 14.0248 1.09599 -0.48029
head 9.57013 0.730197 -0.7531
rclavicle 6.31763e-015 -1.80149e-015
rhumerus -1.10317 6.25838 -85.7511
rradius 105.633
rwrist 16.4519
rhand 13.2948 -16.7091
rfingers 7.12502
rthumb 38.2442 -42.4414
lclavicle 6.31763e-015 -1.80149e-015
lhumerus -1.10929 0.0246016 79.3657
lradius 108.749
lwrist 13.3001
lhand 18.4714 19.4187
lfingers 7.12502
lthumb 43.1086 43.6261
rfemur -78.7436 3.50441 21.8188
rtibia 74.5693
rfoot -25.4859 -13.7674
rtoes -12.2945
lfemur -79.2913 -1.2707 -22.0494
ltibia 70.2376
lfoot -23.3358 8.69813
ltoes -13.4859
